<svg xmlns="http://www.w3.org/2000/svg" xmlns:xlink="http://www.w3.org/1999/xlink" width="2000" zoomAndPan="magnify" viewBox="0 0 1500 1499.999933" height="2000" preserveAspectRatio="xMidYMid meet" version="1.0"><defs><g/><clipPath id="62b3fb259f"><path d="M 0.640625 11 L 500 11 L 500 1433 L 0.640625 1433 Z M 0.640625 11 " clip-rule="nonzero"/></clipPath><clipPath id="24384dfd5d"><rect x="0" width="502" y="0" height="1444"/></clipPath></defs><rect x="-150" width="1800" fill="#ffffff" y="-149.999993" height="1799.99992" fill-opacity="1"/><rect x="-150" width="1800" fill="#c1ff72" y="-149.999993" height="1799.99992" fill-opacity="1"/><g transform="matrix(1, 0, 0, 1, 500, 6)"><g clip-path="url(#24384dfd5d)"><g clip-path="url(#62b3fb259f)"><g fill="#000000" fill-opacity="1"><g transform="translate(0.69876, 1163.391651)"><g><path d="M 208.4375 0 C 208.4375 0 208.4375 -0.625 208.4375 -1.875 C 208.4375 -3.132812 208.859375 -3.765625 209.703125 -3.765625 C 228.953125 -3.765625 244.226562 -10.460938 255.53125 -23.859375 C 266.832031 -37.253906 270.390625 -57.765625 266.203125 -85.390625 L 209.703125 -356.609375 L 156.953125 -356.609375 L 90.40625 0 L 0 0 L 3.765625 -3.765625 C 25.535156 -3.765625 45.414062 -10.039062 63.40625 -22.59375 C 81.40625 -35.15625 94.59375 -54.832031 102.96875 -81.625 L 153.1875 -360.375 C 165.75 -434.039062 178.097656 -500.585938 190.234375 -560.015625 C 202.367188 -619.453125 213.457031 -676.796875 223.5 -732.046875 C 233.550781 -787.296875 241.925781 -845.679688 248.625 -907.203125 C 255.320312 -968.734375 259.085938 -1038.84375 259.921875 -1117.53125 L 263.6875 -1122.5625 L 262.4375 -930.4375 L 415.625 -75.34375 C 420.644531 -52.738281 430.269531 -35.15625 444.5 -22.59375 C 458.738281 -10.039062 475.898438 -3.765625 495.984375 -3.765625 L 498.5 0 L 423.15625 0 C 408.925781 0 397 5.859375 387.375 17.578125 C 377.75 29.296875 370.632812 52.316406 366.03125 86.640625 C 361.425781 120.960938 359.125 172.445312 359.125 241.09375 C 359.125 241.925781 358.703125 242.96875 357.859375 244.21875 C 357.023438 245.476562 356.609375 246.109375 356.609375 246.109375 C 356.609375 246.109375 356.1875 245.6875 355.34375 244.84375 C 354.507812 244.007812 354.09375 242.757812 354.09375 241.09375 C 354.09375 172.445312 351.789062 120.960938 347.1875 86.640625 C 342.582031 52.316406 335.46875 29.296875 325.84375 17.578125 C 316.21875 5.859375 303.867188 0 288.796875 0 Z M 105.46875 -81.625 C 97.9375 -29.71875 116.351562 -3.765625 160.71875 -3.765625 L 161.984375 0 L 90.40625 0 Z M 156.953125 -360.375 L 209.703125 -360.375 L 182.078125 -494.734375 Z M 425.671875 -450.78125 C 400.554688 -444.925781 382.554688 -436.140625 371.671875 -424.421875 C 360.796875 -412.703125 357.867188 -393.863281 362.890625 -367.90625 L 350.328125 -434.46875 Z M 425.671875 -454.546875 L 349.078125 -438.234375 L 336.515625 -504.78125 C 341.535156 -479.664062 351.367188 -463.550781 366.015625 -456.4375 C 380.671875 -449.320312 400.554688 -448.691406 425.671875 -454.546875 Z M 349.078125 -438.234375 L 425.671875 -454.546875 L 425.671875 -450.78125 L 350.328125 -434.46875 Z M 75.34375 -365.40625 L 151.9375 -350.328125 L 139.375 -283.78125 C 144.394531 -309.726562 141.253906 -328.5625 129.953125 -340.28125 C 118.660156 -352 100.457031 -360.375 75.34375 -365.40625 Z M 75.34375 -369.171875 C 100.457031 -364.148438 120.335938 -365.195312 134.984375 -372.3125 C 149.628906 -379.425781 159.46875 -395.539062 164.5 -420.65625 L 151.9375 -354.09375 Z M 151.9375 -354.09375 L 151.9375 -350.328125 L 75.34375 -365.40625 L 75.34375 -369.171875 Z M 62.78125 -371.671875 L 70.3125 -366.65625 L 61.53125 -364.140625 L 52.734375 -369.171875 Z M 352.84375 259.921875 L 356.609375 251.140625 L 360.375 259.921875 L 356.609375 268.71875 Z M 257.40625 -1142.640625 L 261.1875 -1151.4375 L 264.953125 -1142.640625 L 261.1875 -1133.859375 Z M 257.40625 -1142.640625 "/></g></g></g></g></g></g></svg>